G04 #@! TF.GenerationSoftware,KiCad,Pcbnew,(5.1.5-0-10_14)*
G04 #@! TF.CreationDate,2020-08-17T13:50:39-04:00*
G04 #@! TF.ProjectId,pressurization_series1,70726573-7375-4726-997a-6174696f6e5f,Rev 1*
G04 #@! TF.SameCoordinates,Original*
G04 #@! TF.FileFunction,Copper,L6,Inr*
G04 #@! TF.FilePolarity,Positive*
%FSLAX46Y46*%
G04 Gerber Fmt 4.6, Leading zero omitted, Abs format (unit mm)*
G04 Created by KiCad (PCBNEW (5.1.5-0-10_14)) date 2020-08-17 13:50:39*
%MOMM*%
%LPD*%
G04 APERTURE LIST*
%ADD10C,2.540000*%
%ADD11R,1.600000X1.600000*%
%ADD12C,1.600000*%
%ADD13C,2.286000*%
%ADD14C,8.000000*%
%ADD15R,1.700000X1.700000*%
%ADD16O,1.700000X1.700000*%
%ADD17C,0.609600*%
%ADD18C,0.508000*%
%ADD19C,0.203200*%
%ADD20C,0.381000*%
%ADD21C,0.254000*%
G04 APERTURE END LIST*
D10*
X69646800Y-89890600D03*
X65836800Y-89890600D03*
X62026800Y-89890600D03*
X58216800Y-89890600D03*
X60121800Y-93192600D03*
X67741800Y-93192600D03*
X63931800Y-93192600D03*
X56311800Y-93192600D03*
X71551800Y-93192600D03*
X69646800Y-96494600D03*
X65836800Y-96494600D03*
X58216800Y-96494600D03*
X62026800Y-96494600D03*
X73456800Y-96494600D03*
X54406800Y-96494600D03*
X63931800Y-106400600D03*
X60121800Y-106400600D03*
X62026800Y-109702600D03*
X54406800Y-103098600D03*
X56311800Y-106400600D03*
X58216800Y-109702600D03*
X58216800Y-103098600D03*
X62026800Y-103098600D03*
X65836800Y-109702600D03*
X67741800Y-106400600D03*
X65836800Y-103098600D03*
X71551800Y-106400600D03*
X69646800Y-109702600D03*
X69646800Y-103098600D03*
X73456800Y-103098600D03*
X71551800Y-99796600D03*
X67741800Y-99796600D03*
X63931800Y-99796600D03*
X60121800Y-99796600D03*
X56311800Y-99796600D03*
X75361800Y-99796600D03*
X52501800Y-99796600D03*
X138734800Y-89916000D03*
X134924800Y-89916000D03*
X131114800Y-89916000D03*
X127304800Y-89916000D03*
X129209800Y-93218000D03*
X136829800Y-93218000D03*
X133019800Y-93218000D03*
X125399800Y-93218000D03*
X140639800Y-93218000D03*
X138734800Y-96520000D03*
X134924800Y-96520000D03*
X127304800Y-96520000D03*
X131114800Y-96520000D03*
X142544800Y-96520000D03*
X123494800Y-96520000D03*
X133019800Y-106426000D03*
X129209800Y-106426000D03*
X131114800Y-109728000D03*
X123494800Y-103124000D03*
X125399800Y-106426000D03*
X127304800Y-109728000D03*
X127304800Y-103124000D03*
X131114800Y-103124000D03*
X134924800Y-109728000D03*
X136829800Y-106426000D03*
X134924800Y-103124000D03*
X140639800Y-106426000D03*
X138734800Y-109728000D03*
X138734800Y-103124000D03*
X142544800Y-103124000D03*
X140639800Y-99822000D03*
X136829800Y-99822000D03*
X133019800Y-99822000D03*
X129209800Y-99822000D03*
X125399800Y-99822000D03*
X144449800Y-99822000D03*
X121589800Y-99822000D03*
X225120200Y-89890600D03*
X221310200Y-89890600D03*
X217500200Y-89890600D03*
X213690200Y-89890600D03*
X215595200Y-93192600D03*
X223215200Y-93192600D03*
X219405200Y-93192600D03*
X211785200Y-93192600D03*
X227025200Y-93192600D03*
X225120200Y-96494600D03*
X221310200Y-96494600D03*
X213690200Y-96494600D03*
X217500200Y-96494600D03*
X228930200Y-96494600D03*
X209880200Y-96494600D03*
X219405200Y-106400600D03*
X215595200Y-106400600D03*
X217500200Y-109702600D03*
X209880200Y-103098600D03*
X211785200Y-106400600D03*
X213690200Y-109702600D03*
X213690200Y-103098600D03*
X217500200Y-103098600D03*
X221310200Y-109702600D03*
X223215200Y-106400600D03*
X221310200Y-103098600D03*
X227025200Y-106400600D03*
X225120200Y-109702600D03*
X225120200Y-103098600D03*
X228930200Y-103098600D03*
X227025200Y-99796600D03*
X223215200Y-99796600D03*
X219405200Y-99796600D03*
X215595200Y-99796600D03*
X211785200Y-99796600D03*
X230835200Y-99796600D03*
X207975200Y-99796600D03*
D11*
X62484000Y-71318000D03*
D12*
X62484000Y-67818000D03*
D13*
X89154000Y-70104000D03*
X85471000Y-69977000D03*
X81915000Y-70104000D03*
X89154000Y-63500000D03*
X85471000Y-63373000D03*
X81915000Y-63500000D03*
X98298000Y-144780000D03*
X94742000Y-144780000D03*
X91186000Y-144780000D03*
D11*
X75692000Y-71120000D03*
D12*
X75692000Y-67620000D03*
D11*
X57658000Y-126619000D03*
D12*
X57658000Y-130119000D03*
D13*
X129794000Y-144780000D03*
X198374000Y-71374000D03*
X183261000Y-88011000D03*
D14*
X261620000Y-60198000D03*
X146050000Y-60198000D03*
X30480000Y-141478000D03*
X146050000Y-141478000D03*
X261620000Y-141478000D03*
X30480000Y-60198000D03*
D12*
X27432000Y-96234000D03*
D11*
X27432000Y-94234000D03*
X27686000Y-113633000D03*
D12*
X27686000Y-115633000D03*
X71501000Y-130246000D03*
D11*
X71501000Y-126746000D03*
D13*
X98425000Y-59029600D03*
X98425000Y-56108600D03*
X98425000Y-61823600D03*
D15*
X162179000Y-61341000D03*
D16*
X159639000Y-61341000D03*
X162179000Y-58801000D03*
X159639000Y-58801000D03*
X162179000Y-56261000D03*
X159639000Y-56261000D03*
D15*
X105537000Y-54991000D03*
D16*
X108077000Y-54991000D03*
D13*
X267335000Y-80365600D03*
X267335000Y-74904600D03*
X267335000Y-77571600D03*
X193040000Y-78117700D03*
X185166000Y-78105000D03*
X189230000Y-78117700D03*
X133985000Y-144780000D03*
X125476000Y-144780000D03*
X170307000Y-146951700D03*
X164211000Y-146951700D03*
X167259000Y-146951700D03*
X161163000Y-146951700D03*
X158115000Y-146951700D03*
X33401000Y-65887600D03*
X37719000Y-65887600D03*
X42291000Y-65887600D03*
X33401000Y-69951600D03*
X37719000Y-69951600D03*
X42291000Y-69951600D03*
X32766000Y-125412500D03*
X37084000Y-125666500D03*
X41402000Y-125412500D03*
X41402000Y-129730500D03*
X37084000Y-129730500D03*
X32766000Y-129730500D03*
X78867000Y-144754600D03*
X82423000Y-144754600D03*
X85979000Y-144754600D03*
X267284200Y-68732400D03*
X266966700Y-130771900D03*
X267284200Y-66065400D03*
X266966700Y-127977900D03*
X267284200Y-71526400D03*
X266839700Y-133565900D03*
X166243000Y-88011000D03*
X169926000Y-88011000D03*
X166243000Y-92583000D03*
X169926000Y-92583000D03*
D17*
X133731000Y-84328000D03*
X132842000Y-84328000D03*
X134620000Y-84328000D03*
X99441000Y-77089000D03*
X96012000Y-77089000D03*
X99441000Y-75946000D03*
X96012000Y-75946000D03*
X250571000Y-71374000D03*
X248285000Y-72390000D03*
X250444000Y-72390000D03*
X250444000Y-69596000D03*
X248285000Y-69469000D03*
X248285000Y-67818000D03*
X250571000Y-67818000D03*
X252412500Y-129095500D03*
X250190000Y-131127500D03*
X252285500Y-131064000D03*
X252349000Y-132969000D03*
X250126500Y-132969000D03*
X35433000Y-85725000D03*
X35433000Y-87376000D03*
X35433000Y-89281000D03*
X35433000Y-93345000D03*
X37338000Y-89281000D03*
X37338000Y-87503000D03*
X37338000Y-85725000D03*
X39243000Y-85725000D03*
X39243000Y-87503000D03*
X39116000Y-89281000D03*
X37338000Y-93345000D03*
X34163000Y-112522000D03*
X35306000Y-113538000D03*
X37211000Y-105283000D03*
X37211000Y-111633000D03*
X37211000Y-113538000D03*
X39116000Y-113538000D03*
X39116000Y-111633000D03*
X39243000Y-108331000D03*
X39116000Y-107188000D03*
X39116000Y-105283000D03*
X39243000Y-93345000D03*
X201168000Y-138430000D03*
X259207000Y-115570000D03*
X206883000Y-138557000D03*
X211455000Y-138303000D03*
X215646000Y-138938000D03*
X220853000Y-138430000D03*
X225044000Y-138557000D03*
X229743000Y-138430000D03*
X233807000Y-138430000D03*
X259715000Y-101092000D03*
X259588000Y-109855000D03*
X259715000Y-104902000D03*
X259334000Y-92583000D03*
X259842000Y-87503000D03*
X259715000Y-83566000D03*
X237490000Y-60325000D03*
X231648000Y-59055000D03*
X130937000Y-114173000D03*
X118681500Y-114236500D03*
X124841000Y-114173000D03*
X136906000Y-114173000D03*
X143002000Y-114173000D03*
D18*
X159131000Y-94361000D03*
X159131000Y-109855000D03*
D17*
X77851000Y-123444000D03*
D18*
X28829000Y-95758000D03*
D17*
X220040300Y-72821700D03*
X205333600Y-72669400D03*
X209423000Y-72644000D03*
X212928300Y-72821700D03*
X216484300Y-72440700D03*
X249428000Y-89662000D03*
X249428000Y-98425000D03*
X249428000Y-107188000D03*
X248412000Y-115570000D03*
X30099000Y-116078000D03*
X109728000Y-87376000D03*
X110490000Y-92913200D03*
X135940800Y-62560200D03*
X104775000Y-65278000D03*
X106172000Y-65278000D03*
X107569000Y-65278000D03*
X104775000Y-64008000D03*
X106172000Y-64008000D03*
X107696000Y-64008000D03*
X104775000Y-62611000D03*
X106172000Y-62611000D03*
X136829800Y-62560200D03*
X137718800Y-62560200D03*
X138734800Y-62560200D03*
X35369500Y-106489500D03*
X37338000Y-108331000D03*
X255395405Y-129220654D03*
X253595300Y-67714700D03*
X184912000Y-111506000D03*
X182321000Y-112954000D03*
X184658000Y-116713000D03*
X187315356Y-116468644D03*
X183896000Y-119380000D03*
X99441000Y-107950000D03*
X99441000Y-112014000D03*
X99441000Y-115824000D03*
X172593000Y-122047000D03*
X170053000Y-120777000D03*
X96266000Y-70358000D03*
X184988000Y-92380000D03*
X209931000Y-128371590D03*
X227965000Y-128371590D03*
X190881000Y-113792000D03*
X218948000Y-127787410D03*
X191947000Y-53671000D03*
X201185000Y-54466000D03*
X182245000Y-53721000D03*
D18*
X183388000Y-103886000D03*
X181102000Y-106680000D03*
D17*
X97663000Y-75946000D03*
X97613400Y-77089000D03*
X258724400Y-98298000D03*
X260553200Y-99288600D03*
X65852000Y-123251000D03*
X67879000Y-74356000D03*
X54229000Y-74676000D03*
D18*
X27432000Y-105410000D03*
X30099000Y-102616000D03*
X43307000Y-102616000D03*
X43434000Y-96139000D03*
D17*
X31877000Y-98806000D03*
X26898600Y-85852000D03*
X30226000Y-82677000D03*
X43434000Y-82804000D03*
X35626000Y-77531000D03*
X115951000Y-56388000D03*
X118872000Y-56388000D03*
X121920000Y-56388000D03*
X124968000Y-56388000D03*
X178308000Y-144526000D03*
X181483000Y-144526000D03*
X184658000Y-144526000D03*
X187960000Y-144526000D03*
X191262000Y-144526000D03*
X194564000Y-144526000D03*
X169545000Y-106045000D03*
X158038800Y-67310000D03*
X155499000Y-69316400D03*
X223596300Y-72644010D03*
X136398000Y-64465200D03*
X129493022Y-63191378D03*
D18*
X43764200Y-115747800D03*
D17*
X112649000Y-68834000D03*
X236717345Y-69062590D03*
X174752000Y-109474000D03*
X175133000Y-144526000D03*
X137033000Y-57658000D03*
X185801000Y-67818000D03*
X190313000Y-67751000D03*
X161290000Y-105029000D03*
X129032000Y-57912000D03*
X172085000Y-60960000D03*
X175641000Y-60960000D03*
X200152000Y-67945000D03*
X104521000Y-81534000D03*
X184277000Y-126174500D03*
X179895500Y-128714500D03*
X188595000Y-126682500D03*
X258000500Y-134747000D03*
D18*
X238506000Y-142621000D03*
X256667000Y-142621000D03*
X53721000Y-142240000D03*
X43561000Y-142367000D03*
X45212000Y-56515000D03*
X88646000Y-56388000D03*
D17*
X200279000Y-127787400D03*
X247396000Y-98153703D03*
X122110500Y-114236500D03*
X128143000Y-114173000D03*
X140208000Y-114173000D03*
X134302500Y-114236500D03*
X146367500Y-114236500D03*
D18*
X159118300Y-90563700D03*
X154305000Y-86753700D03*
X154305000Y-102235000D03*
D17*
X79629000Y-121412000D03*
X247142000Y-115570000D03*
X110744000Y-87630000D03*
X114935000Y-64770000D03*
X115951000Y-64770000D03*
X116967000Y-64770000D03*
X114808000Y-67513200D03*
X117221000Y-67513200D03*
X116332000Y-65659000D03*
X112776000Y-59690000D03*
X255414459Y-128484298D03*
X255312339Y-131769537D03*
X253619000Y-70459603D03*
X253600500Y-66656500D03*
X181483000Y-137033000D03*
X190872000Y-111642000D03*
X187452000Y-112014000D03*
X184785000Y-115951000D03*
X187326714Y-117205158D03*
X183504247Y-116662342D03*
X183173702Y-119524459D03*
X170688000Y-122047000D03*
X94691000Y-70409000D03*
X98216600Y-72852400D03*
X194691000Y-88646000D03*
X184975500Y-90741500D03*
X202311000Y-61087000D03*
X183515000Y-65024000D03*
X179324000Y-60833000D03*
X247573800Y-89560400D03*
X247472200Y-107162600D03*
D18*
X185674000Y-105156000D03*
D17*
X65913000Y-121666000D03*
X67437000Y-75565000D03*
X54189000Y-75986000D03*
X32004000Y-100203000D03*
X32893000Y-78486000D03*
X115620800Y-67513200D03*
X116433600Y-67513200D03*
X117221000Y-65659000D03*
X170942000Y-103759000D03*
X130581400Y-67335400D03*
X100838000Y-102133400D03*
X236956600Y-70586600D03*
X161671000Y-105791000D03*
X192513000Y-67837000D03*
X202247500Y-123380500D03*
X209931000Y-123825000D03*
X219202000Y-123698000D03*
X227965000Y-123888500D03*
X169291000Y-107823000D03*
X173228000Y-122428000D03*
X184785000Y-113639603D03*
X195326000Y-61722000D03*
X194564000Y-61722000D03*
X202946000Y-63119000D03*
X202184000Y-63119000D03*
X101475542Y-60934600D03*
X93853000Y-82423000D03*
X94361000Y-82931000D03*
X102387400Y-60934600D03*
X101346000Y-93980000D03*
X101346000Y-93218000D03*
X107975396Y-66243200D03*
X101269800Y-70205600D03*
X256260600Y-73609200D03*
X154660600Y-72644000D03*
X159207200Y-137998200D03*
X258064000Y-132969000D03*
X129921000Y-60833000D03*
X195326000Y-62738000D03*
X194564000Y-62738000D03*
X203200000Y-65151000D03*
X202438000Y-65151000D03*
X126746000Y-60198000D03*
X127508000Y-60198000D03*
X102743000Y-91948000D03*
X102743000Y-92710000D03*
X107569000Y-82677000D03*
X107569000Y-83439000D03*
X155194000Y-62738000D03*
X155321000Y-66040000D03*
X124460000Y-80899000D03*
X124460000Y-82296000D03*
X124460000Y-79502000D03*
X58928000Y-64262000D03*
X61976000Y-64262000D03*
X57912000Y-65278000D03*
X60960000Y-64262000D03*
X57912000Y-66294000D03*
X61976000Y-66294000D03*
X61976000Y-65278000D03*
X57912000Y-64262000D03*
X59944000Y-64262000D03*
X72136000Y-64262000D03*
X75184000Y-64262000D03*
X71120000Y-65278000D03*
X74168000Y-64262000D03*
X71120000Y-66040000D03*
X75184000Y-66040000D03*
X75184000Y-65278000D03*
X71120000Y-64262000D03*
X73152000Y-64262000D03*
X121920000Y-80899000D03*
X121920000Y-82296000D03*
X121920000Y-79502000D03*
X123190000Y-80899000D03*
X123190000Y-82296000D03*
X123190000Y-79502000D03*
X221615000Y-134620000D03*
X221615000Y-135509000D03*
X221615000Y-136398000D03*
X219202000Y-134620000D03*
X219202000Y-136398000D03*
X114300000Y-83820000D03*
X256542200Y-113413200D03*
X256540000Y-115443000D03*
X257302000Y-115443000D03*
X255778000Y-115443000D03*
X257302000Y-113411000D03*
X255778000Y-113411000D03*
X256667000Y-104648000D03*
X256667000Y-106934000D03*
X257429000Y-106934000D03*
X255905000Y-106934000D03*
X255905000Y-104775000D03*
X257429000Y-104775000D03*
X256413000Y-95885000D03*
X256413000Y-98298000D03*
X257302000Y-98298000D03*
X257302000Y-96012000D03*
X255651000Y-96139000D03*
X255651000Y-98171000D03*
X256439200Y-87148200D03*
X256413000Y-89535000D03*
X257175000Y-87122000D03*
X257175000Y-89535000D03*
X255651000Y-89408000D03*
X255651000Y-87249000D03*
X236474000Y-62357000D03*
X234061000Y-62357000D03*
X236474000Y-61468000D03*
X236474000Y-63119000D03*
X234061000Y-61468000D03*
X234061000Y-63119000D03*
X41656000Y-113411000D03*
X41656000Y-114173000D03*
X44831000Y-113411000D03*
X203708000Y-134874000D03*
X203708000Y-135636000D03*
X203708000Y-136398000D03*
X201676000Y-136398000D03*
X201676000Y-135636000D03*
X201676000Y-134874000D03*
X212598000Y-135001000D03*
X212598000Y-135763000D03*
X212598000Y-136525000D03*
X219202000Y-135509000D03*
X230505000Y-134874000D03*
X230505000Y-135636000D03*
X228092000Y-134874000D03*
X228092000Y-135636000D03*
X228092000Y-136398000D03*
X210312000Y-135001000D03*
X210312000Y-135763000D03*
X210312000Y-136652000D03*
X115570000Y-83820000D03*
X116840000Y-83820000D03*
X118110000Y-83693000D03*
X119380000Y-83693000D03*
X120650000Y-83693000D03*
X121920000Y-83693000D03*
X123190000Y-83693000D03*
X124460000Y-83693000D03*
X118110000Y-79502000D03*
X114300000Y-86233000D03*
X115570000Y-86233000D03*
X116840000Y-86233000D03*
X118110000Y-86233000D03*
X119380000Y-86233000D03*
X120650000Y-86233000D03*
X121920000Y-86233000D03*
X118110000Y-80899000D03*
X118110000Y-82296000D03*
X118110000Y-84963000D03*
X116840000Y-84963000D03*
X115570000Y-84963000D03*
X114300000Y-84963000D03*
X119380000Y-79502000D03*
X119380000Y-80899000D03*
X119380000Y-82296000D03*
X120650000Y-80899000D03*
X120650000Y-82296000D03*
X113030000Y-83820000D03*
X113030000Y-86233000D03*
X113030000Y-87630000D03*
X114300000Y-87630000D03*
X115570000Y-87630000D03*
X116840000Y-87630000D03*
X118110000Y-87630000D03*
X123190000Y-84963000D03*
X120650000Y-79502000D03*
X119380000Y-84963000D03*
X120650000Y-84963000D03*
X121920000Y-84963000D03*
X113030000Y-84963000D03*
X44831000Y-114173000D03*
D18*
X41783000Y-94234000D03*
X41783000Y-93472000D03*
X44958000Y-93472000D03*
X44958000Y-94234000D03*
D17*
X175107600Y-137007600D03*
X201676000Y-134112000D03*
X202946000Y-134112000D03*
X210312000Y-134239000D03*
X211455000Y-134239000D03*
X219710000Y-133985000D03*
X220853000Y-133985000D03*
X230505000Y-136398000D03*
X227330000Y-135636000D03*
X227330000Y-134874000D03*
X254762000Y-113512600D03*
X254889000Y-115062000D03*
X254889000Y-104902000D03*
X254889000Y-106553000D03*
X254762000Y-96266000D03*
X254762000Y-97917000D03*
X254762000Y-87376000D03*
X254762000Y-89281000D03*
X234315000Y-64008000D03*
X236093000Y-63881000D03*
X72644000Y-134620000D03*
X73660000Y-134620000D03*
X74676000Y-134620000D03*
X75692000Y-134620000D03*
X71628000Y-134620000D03*
X71628000Y-133604000D03*
X75692000Y-133604000D03*
X75692000Y-132588000D03*
X71628000Y-132588000D03*
X60452000Y-134366000D03*
X61468000Y-134366000D03*
X59436000Y-134366000D03*
X62484000Y-134366000D03*
X58420000Y-134366000D03*
X58420000Y-133350000D03*
X58420000Y-132334000D03*
X62484000Y-133350000D03*
X62484000Y-132334000D03*
X124460000Y-84963000D03*
X133731000Y-85852000D03*
X132842000Y-85852000D03*
X134620000Y-85852000D03*
X36830000Y-71882000D03*
X38354000Y-71882000D03*
X36830000Y-74422000D03*
X38354000Y-74422000D03*
X38354000Y-73152000D03*
X216408000Y-124079000D03*
X234315000Y-123571000D03*
X244475000Y-109474000D03*
X245491000Y-109220000D03*
X245999000Y-100711000D03*
X244221000Y-100711000D03*
X245313200Y-91998800D03*
X244094000Y-93599000D03*
X244221000Y-83058000D03*
X244221000Y-85725000D03*
X67945000Y-119126000D03*
X67945000Y-120015000D03*
X67310000Y-118237000D03*
X66548000Y-119126000D03*
X65405000Y-119126000D03*
X65405000Y-120015000D03*
X66548000Y-120015000D03*
X66040000Y-118237000D03*
X65405000Y-113792000D03*
X66675000Y-113792000D03*
X65405000Y-114681000D03*
X66040000Y-115570000D03*
X67945000Y-113792000D03*
X66675000Y-114681000D03*
X67310000Y-115570000D03*
X67945000Y-114681000D03*
X78613000Y-118745000D03*
X78613000Y-120015000D03*
X79756000Y-120015000D03*
X79756000Y-118745000D03*
X78613000Y-113665000D03*
X79756000Y-113665000D03*
X79756000Y-114935000D03*
X78613000Y-114935000D03*
X53213000Y-113665000D03*
X53213000Y-114935000D03*
X54356000Y-120142000D03*
X53213000Y-120142000D03*
X53213000Y-118745000D03*
X66040000Y-116840000D03*
X79121000Y-116840000D03*
X53594000Y-116840000D03*
X111252000Y-96012000D03*
X208280000Y-123571000D03*
X225679000Y-123634500D03*
X229489000Y-72644000D03*
X229463600Y-73761600D03*
X65278000Y-83566000D03*
X65278000Y-84582000D03*
X66675000Y-83566000D03*
X66675000Y-84582000D03*
X67945000Y-83566000D03*
X67945000Y-84709000D03*
X65786000Y-82550000D03*
X67310000Y-82550000D03*
X65786000Y-80010000D03*
X67310000Y-80010000D03*
X65278000Y-78232000D03*
X65278000Y-79121000D03*
X66548000Y-78232000D03*
X66548000Y-79121000D03*
X67818000Y-78232000D03*
X67818000Y-79121000D03*
X78486000Y-83693000D03*
X78486000Y-84836000D03*
X79502000Y-84836000D03*
X79502000Y-83693000D03*
X79248000Y-81407000D03*
X78613000Y-78105000D03*
X78613000Y-79248000D03*
X79502000Y-79248000D03*
X79502000Y-78105000D03*
X54610000Y-84582000D03*
X53594000Y-84582000D03*
X53594000Y-83693000D03*
X54610000Y-83693000D03*
X53594000Y-78105000D03*
X54610000Y-78105000D03*
X54610000Y-79121000D03*
X53594000Y-79121000D03*
X53975000Y-81280000D03*
X46482000Y-97282000D03*
X46482000Y-95758000D03*
X49022000Y-97282000D03*
X49022000Y-95758000D03*
X47752000Y-95758000D03*
X54356000Y-113665000D03*
X54356000Y-118745000D03*
X54356000Y-114935000D03*
X205486000Y-123380500D03*
X213677500Y-123571000D03*
X223012000Y-122478810D03*
X231965500Y-122478810D03*
X67310000Y-116840000D03*
X65786000Y-81280000D03*
X67310000Y-81280000D03*
X230886000Y-75946000D03*
X206756000Y-122174000D03*
X215011000Y-122148590D03*
X224271000Y-122148590D03*
X243078000Y-108458000D03*
X243078000Y-99568000D03*
X243078000Y-91059000D03*
X242570000Y-83312000D03*
X232994000Y-122098000D03*
X32512000Y-86106000D03*
X156464000Y-114503200D03*
X41503600Y-89052400D03*
X85090002Y-87502998D03*
X156997400Y-113715800D03*
X47828200Y-86690190D03*
X85217000Y-85979000D03*
X158496000Y-114173000D03*
X32689800Y-95046800D03*
X27355800Y-90957400D03*
X31623000Y-106172000D03*
X171121636Y-100096443D03*
X40208200Y-111226602D03*
X171729400Y-99390200D03*
X40182800Y-107416600D03*
X170535600Y-100812600D03*
D18*
X175387000Y-102489000D03*
D17*
X41021000Y-112369600D03*
X28117800Y-111226600D03*
X178816000Y-94615000D03*
X170002200Y-102920800D03*
X168351200Y-97129600D03*
X169341800Y-89839800D03*
X167106600Y-107823000D03*
X160299400Y-87376000D03*
X175437800Y-110236000D03*
X176022000Y-118745000D03*
D18*
X192786000Y-95631000D03*
D17*
X194945000Y-74676000D03*
X192151000Y-93980000D03*
X176022000Y-116713000D03*
X187325000Y-93472000D03*
X176022000Y-114935000D03*
X210439000Y-67487800D03*
X210312000Y-64135000D03*
X213969600Y-67487800D03*
X213868000Y-64135000D03*
X206603600Y-67538600D03*
X206502000Y-64135000D03*
X219583000Y-66294000D03*
X221107000Y-65151000D03*
X217525600Y-67513200D03*
X217551000Y-64135000D03*
X224688400Y-67436998D03*
D18*
X31623000Y-109601000D03*
X32512000Y-109601000D03*
X31623000Y-110363000D03*
X32512000Y-110363000D03*
D17*
X32004000Y-91059000D03*
X33147000Y-91059000D03*
X33147000Y-92329000D03*
X32004000Y-92329000D03*
X96901000Y-91694000D03*
X96748600Y-87706200D03*
X79375000Y-89027000D03*
X96774000Y-90398600D03*
X79298800Y-92151200D03*
X96774000Y-89052400D03*
X79375000Y-90297000D03*
X173736000Y-108458000D03*
X162052000Y-100457000D03*
X154813000Y-99314000D03*
X133350000Y-114300000D03*
X132080000Y-114300000D03*
X145288000Y-114300000D03*
X119888000Y-114300000D03*
X144018000Y-114300000D03*
X120904000Y-114300000D03*
X138049000Y-114300000D03*
X125857000Y-114300000D03*
X127127000Y-114300000D03*
X139319000Y-114300000D03*
X183388000Y-109347000D03*
X161417000Y-98679000D03*
X152908000Y-98679000D03*
X173964600Y-110540800D03*
X160807400Y-102362000D03*
X148971000Y-100203000D03*
X184785000Y-112903000D03*
X229489000Y-62865000D03*
X231978200Y-64617600D03*
X229362000Y-66040000D03*
X207772000Y-137414000D03*
X203962000Y-133985000D03*
X208661000Y-127787410D03*
X216408000Y-137668000D03*
X212725000Y-134112000D03*
X217424000Y-127787410D03*
X225806000Y-137414000D03*
X221742000Y-133731000D03*
X226695000Y-128371590D03*
X234696000Y-137287000D03*
X248920000Y-108204000D03*
X255016000Y-112014000D03*
X258953000Y-109220000D03*
X248920000Y-99568000D03*
X255219200Y-103606600D03*
X259207000Y-100076000D03*
X249936000Y-90678000D03*
X255016000Y-94742000D03*
X258953000Y-91694000D03*
X255270000Y-86360000D03*
X248412000Y-81153000D03*
X259461000Y-82804000D03*
X231521000Y-134747000D03*
X235204000Y-127787410D03*
X255905000Y-131064000D03*
X98171000Y-71755000D03*
X254075128Y-69673272D03*
X183057810Y-128651000D03*
X257556000Y-71501000D03*
X257344567Y-131529433D03*
X96266000Y-72898000D03*
X181228996Y-131191000D03*
X171958000Y-118491000D03*
X173101000Y-117729000D03*
X193167000Y-123444000D03*
X192405000Y-123444000D03*
X191516000Y-123444000D03*
X190754000Y-123444000D03*
X108585000Y-94310200D03*
X108762800Y-71882000D03*
X101371400Y-82321400D03*
X238887000Y-71551800D03*
X178943000Y-66040000D03*
X160020000Y-64643000D03*
X235432600Y-58699400D03*
X235077000Y-64579500D03*
X196291200Y-104978200D03*
X235077000Y-75057010D03*
X237236000Y-65151000D03*
X239014000Y-66319400D03*
X200710800Y-139090400D03*
X192786000Y-110591600D03*
X197421500Y-129730500D03*
X236982000Y-134645400D03*
X209067400Y-133223000D03*
X209626200Y-139217400D03*
X193522600Y-110007400D03*
X198945500Y-129730500D03*
X237744000Y-132969000D03*
X218821000Y-131953000D03*
X219075000Y-139344400D03*
X194106800Y-109321600D03*
X200914000Y-130556000D03*
X237998000Y-131572000D03*
X227584000Y-131826000D03*
D18*
X260045200Y-115570000D03*
D17*
X191296278Y-108212878D03*
X251206000Y-116205000D03*
X249682000Y-116205000D03*
X260553200Y-106883200D03*
X191287400Y-107340400D03*
X198551800Y-107340400D03*
X254381000Y-104140000D03*
X250190000Y-121539000D03*
X260299200Y-98221800D03*
X200177400Y-106730800D03*
D18*
X243586000Y-79248000D03*
D17*
X253238000Y-90170000D03*
X260604200Y-89280800D03*
X197535800Y-105816400D03*
X244475000Y-89916000D03*
X192227200Y-108712000D03*
X227838000Y-139344400D03*
X200850500Y-129603500D03*
X93345000Y-120853200D03*
X71374000Y-112903000D03*
X92329000Y-122097800D03*
X75184000Y-112903000D03*
X90830400Y-122174000D03*
X75184000Y-121031000D03*
X108585000Y-90449400D03*
X244157500Y-126555500D03*
X177038000Y-129667000D03*
X259600700Y-67170300D03*
X181991000Y-129667000D03*
X103759000Y-72136000D03*
X98171000Y-70739000D03*
X255270000Y-127762000D03*
D18*
X94615000Y-72898000D03*
D17*
X120904000Y-123647200D03*
X145288000Y-123647200D03*
X139242800Y-123647200D03*
X127177800Y-123647200D03*
X133578600Y-123647200D03*
X147904200Y-125069600D03*
X166954200Y-125069600D03*
X40386000Y-89052400D03*
X100609400Y-89763600D03*
X84404200Y-88392000D03*
X45212000Y-86233000D03*
X100584000Y-88392000D03*
X28397200Y-91617800D03*
X100660200Y-86791800D03*
X45923200Y-112496600D03*
X162077400Y-107391200D03*
X167360600Y-110185200D03*
X45212000Y-105486200D03*
X164490400Y-108483400D03*
X32766000Y-114909600D03*
X184986240Y-122275600D03*
X253568200Y-69037200D03*
X255394100Y-130368400D03*
X179451000Y-124714000D03*
X97536000Y-66294000D03*
X177622200Y-106984800D03*
X183134000Y-122275600D03*
X250672600Y-65760600D03*
X252730000Y-127127000D03*
X179451000Y-123888500D03*
X95504000Y-68199000D03*
X176885600Y-108077000D03*
X179984400Y-123317000D03*
X252349000Y-77165200D03*
X252734100Y-135568400D03*
X179451000Y-125476000D03*
X243459000Y-125349000D03*
X102870000Y-70104000D03*
X176174402Y-109016800D03*
X180848000Y-101475030D03*
X180721000Y-100330000D03*
X177927000Y-101981000D03*
X177927000Y-101092000D03*
X175388017Y-132106417D03*
X121031000Y-118897400D03*
X175348900Y-129933700D03*
X127127000Y-118897400D03*
X133350000Y-118897400D03*
X175361600Y-128600200D03*
X139319000Y-118897400D03*
X173583600Y-124358400D03*
X173482000Y-123291600D03*
X145288000Y-118897400D03*
X174929800Y-114579400D03*
X105486200Y-72491604D03*
X100101493Y-82283553D03*
X239623600Y-70916800D03*
X176784000Y-65532000D03*
X161188400Y-65430400D03*
X236982000Y-133629400D03*
X201295000Y-128498600D03*
X210058000Y-131318000D03*
X237236000Y-132334000D03*
X236982000Y-131064000D03*
X219375398Y-129565410D03*
X251206000Y-107823000D03*
X251968000Y-121539000D03*
X244094000Y-80899000D03*
X250571000Y-98425000D03*
X246634000Y-77470000D03*
X250571000Y-89535000D03*
X228145582Y-129565410D03*
X236728000Y-129565410D03*
X92633800Y-81610200D03*
X51689000Y-77089000D03*
X36703000Y-100126800D03*
X92633800Y-85598000D03*
X136448800Y-63652400D03*
X28511492Y-86868000D03*
X31623000Y-107315000D03*
X250799600Y-66548000D03*
X37719000Y-76581000D03*
X37084000Y-98171000D03*
D18*
X238252000Y-70358000D03*
X228600000Y-70231000D03*
X239191800Y-69545200D03*
X229108000Y-69494390D03*
X228612326Y-68973326D03*
X238353600Y-69037200D03*
X237744000Y-68326000D03*
X229094467Y-68314880D03*
X238252000Y-67818000D03*
X228600000Y-67818000D03*
X228981000Y-67056000D03*
X237744000Y-67056000D03*
D17*
X248793000Y-75184000D03*
X174523400Y-124231400D03*
X35560000Y-76581000D03*
X33147000Y-97282000D03*
X96189800Y-97383600D03*
X96189800Y-99669600D03*
X79603600Y-96418400D03*
X76962000Y-96418400D03*
X76809600Y-102870000D03*
X81788000Y-112014000D03*
X81534000Y-114300000D03*
X84582000Y-108966000D03*
X84582000Y-110998000D03*
X80645000Y-108204000D03*
X180949600Y-119430800D03*
X155778200Y-122580400D03*
X100990400Y-117754400D03*
X180441600Y-118872000D03*
X156895800Y-121564400D03*
X100965000Y-114909600D03*
X179959000Y-118135400D03*
X157988000Y-120269000D03*
X100965000Y-113842800D03*
X166243000Y-113665000D03*
X96647000Y-111125000D03*
X165354000Y-113919000D03*
X103124000Y-112395000D03*
X164338000Y-113792000D03*
X107696000Y-112903000D03*
X58293000Y-112903000D03*
X164719000Y-111125000D03*
X105410000Y-124333000D03*
X61976000Y-112776000D03*
X168910000Y-109448600D03*
X102489000Y-125603000D03*
X67945000Y-121158000D03*
X98298000Y-125984000D03*
X181737000Y-115189000D03*
X75184000Y-85344000D03*
X86741000Y-84074000D03*
X90043000Y-82931000D03*
X71374000Y-85344000D03*
X84963000Y-80899000D03*
X90297000Y-80899000D03*
X79883000Y-74549000D03*
X71374000Y-76327000D03*
X89712800Y-74549000D03*
X61849000Y-85369400D03*
X84455000Y-77724000D03*
X89560400Y-78740000D03*
X58039000Y-85369400D03*
X81407000Y-76708000D03*
X89585800Y-76708000D03*
X79248000Y-72364600D03*
X58216800Y-76555600D03*
X89662000Y-73660000D03*
X170688000Y-102235000D03*
X98755200Y-121412000D03*
X171272200Y-101549200D03*
X98755200Y-123444000D03*
X180848000Y-116967000D03*
D18*
X110820200Y-127635000D03*
D17*
X79730600Y-124790200D03*
X95021400Y-87680800D03*
X81102200Y-102082600D03*
X65862200Y-124561600D03*
X79248000Y-102082600D03*
X94488000Y-85852000D03*
X55448200Y-71272400D03*
X68465700Y-71691500D03*
D19*
X184353948Y-113639603D02*
X182245000Y-111530655D01*
X184785000Y-113639603D02*
X184353948Y-113639603D01*
X182245000Y-111530655D02*
X182245000Y-96647000D01*
X182245000Y-96647000D02*
X181864000Y-96266000D01*
X181864000Y-96266000D02*
X179832000Y-94234000D01*
X179832000Y-94234000D02*
X179832000Y-74422000D01*
X179832000Y-74422000D02*
X164211000Y-58801000D01*
X164211000Y-58801000D02*
X162052000Y-58801000D01*
D20*
X94742000Y-83312000D02*
X94361000Y-82931000D01*
X93853000Y-82423000D02*
X93853000Y-82423000D01*
X101346000Y-93980000D02*
X101346000Y-93218000D01*
X100457000Y-83312000D02*
X94767398Y-83312000D01*
X101346000Y-84201000D02*
X100457000Y-83312000D01*
X101346000Y-93218000D02*
X101346000Y-84201000D01*
X256260600Y-74040252D02*
X261366000Y-79145652D01*
X256260600Y-73609200D02*
X256260600Y-74040252D01*
X261366000Y-79145652D02*
X261366000Y-110871000D01*
X261366000Y-129667000D02*
X258064000Y-132969000D01*
X261366000Y-110871000D02*
X261366000Y-129667000D01*
X155194000Y-65913000D02*
X155321000Y-66040000D01*
X155194000Y-62738000D02*
X155194000Y-65913000D01*
D19*
X36159401Y-68646001D02*
X36159401Y-83430835D01*
X33401000Y-65887600D02*
X36159401Y-68646001D01*
X36159401Y-83430835D02*
X36169600Y-83441034D01*
X43053002Y-87502998D02*
X41503600Y-89052400D01*
X43053002Y-87502998D02*
X43052998Y-87502998D01*
X43052998Y-87502998D02*
X42545000Y-86995000D01*
X42545000Y-86995000D02*
X39751000Y-86995000D01*
X36169600Y-83441034D02*
X39751000Y-86995000D01*
X85090002Y-87502998D02*
X43053002Y-87502998D01*
X40436800Y-82575400D02*
X40436800Y-68605400D01*
X47828200Y-86690190D02*
X46151810Y-85013800D01*
X40436800Y-68605400D02*
X37719000Y-65887600D01*
X42875200Y-85013800D02*
X40436800Y-82575400D01*
X46151810Y-85013800D02*
X42875200Y-85013800D01*
X48539390Y-85979000D02*
X47828200Y-86690190D01*
X85217000Y-85979000D02*
X48539390Y-85979000D01*
X31623001Y-124269501D02*
X32766000Y-125412500D01*
X40208200Y-111330234D02*
X37467033Y-114071401D01*
X40208200Y-111226602D02*
X40208200Y-111330234D01*
X31623001Y-114731799D02*
X31623001Y-124269501D01*
X32283400Y-114071400D02*
X31623001Y-114731799D01*
X37467033Y-114071401D02*
X32283400Y-114071400D01*
X170002200Y-102920800D02*
X170002200Y-102311200D01*
X170002200Y-102311200D02*
X168325800Y-100634800D01*
X168325800Y-100634800D02*
X168351200Y-97129600D01*
X168351200Y-97129600D02*
X168325800Y-97155000D01*
X169341800Y-89839800D02*
X168097200Y-88595200D01*
X168097200Y-88595200D02*
X168097200Y-70256400D01*
X168097200Y-69799200D02*
X159766000Y-61468000D01*
X168097200Y-70256400D02*
X168097200Y-69799200D01*
X159766000Y-61468000D02*
X159639000Y-61341000D01*
X167106600Y-107823000D02*
X160299400Y-101015800D01*
X160299400Y-101015800D02*
X160299400Y-87376000D01*
X160299400Y-87376000D02*
X160299400Y-87401400D01*
X154813000Y-99314000D02*
X146939000Y-91440000D01*
X146939000Y-91440000D02*
X136017000Y-91440000D01*
X136017000Y-91440000D02*
X135001000Y-92456000D01*
X135001000Y-92456000D02*
X135001000Y-93726000D01*
X135001000Y-93726000D02*
X132969000Y-95758000D01*
X132969000Y-95758000D02*
X132969000Y-97409000D01*
X132969000Y-97409000D02*
X131572000Y-98806000D01*
X131572000Y-98806000D02*
X130556000Y-99822000D01*
X130556000Y-99822000D02*
X129159000Y-99822000D01*
X152908000Y-98679000D02*
X149352000Y-95123000D01*
X149352000Y-95123000D02*
X149098000Y-94869000D01*
X149098000Y-94869000D02*
X137922000Y-94869000D01*
X137922000Y-94869000D02*
X137795000Y-94869000D01*
X137795000Y-94869000D02*
X136906000Y-95758000D01*
X136906000Y-95758000D02*
X136906000Y-97155000D01*
X136906000Y-97155000D02*
X134239000Y-99822000D01*
X134239000Y-99822000D02*
X133096000Y-99822000D01*
X148971000Y-100203000D02*
X148082000Y-99314000D01*
X148082000Y-99314000D02*
X146812000Y-98044000D01*
X146812000Y-98044000D02*
X138684000Y-98044000D01*
X138684000Y-98044000D02*
X136906000Y-99822000D01*
X178562000Y-125376434D02*
X181836566Y-128651000D01*
X182626758Y-128651000D02*
X183057810Y-128651000D01*
X178562000Y-112395000D02*
X178562000Y-125376434D01*
X100457000Y-69469000D02*
X148717000Y-69469000D01*
X98171000Y-71755000D02*
X100457000Y-69469000D01*
X164846000Y-98679000D02*
X178562000Y-112395000D01*
X148717000Y-69469000D02*
X164846000Y-85598000D01*
X181836566Y-128651000D02*
X182626758Y-128651000D01*
X164846000Y-85598000D02*
X164846000Y-98679000D01*
X248412000Y-125984000D02*
X253492000Y-131064000D01*
X253492000Y-131064000D02*
X255905000Y-131064000D01*
X248373901Y-126022099D02*
X248412000Y-125984000D01*
X206121000Y-126047500D02*
X206146401Y-126022099D01*
X185674000Y-126047500D02*
X206121000Y-126047500D01*
X206146401Y-126022099D02*
X248373901Y-126022099D01*
X185166000Y-126555500D02*
X185674000Y-126047500D01*
X185153310Y-126555500D02*
X185166000Y-126555500D01*
X183057810Y-128651000D02*
X185153310Y-126555500D01*
X245844566Y-129032000D02*
X185547000Y-129032000D01*
X249115504Y-132302938D02*
X245844566Y-129032000D01*
X185547000Y-129032000D02*
X183388000Y-131191000D01*
X256571062Y-132302938D02*
X249115504Y-132302938D01*
X183388000Y-131191000D02*
X181660048Y-131191000D01*
X257344567Y-131529433D02*
X256571062Y-132302938D01*
X181660048Y-131191000D02*
X181228996Y-131191000D01*
X177800000Y-130302000D02*
X178689000Y-131191000D01*
X163449000Y-86868000D02*
X163449000Y-99187000D01*
X96266000Y-72898000D02*
X97282000Y-72898000D01*
X177800000Y-113538000D02*
X177800000Y-130302000D01*
X98115001Y-72318999D02*
X98145599Y-72288401D01*
X101600000Y-70993000D02*
X147574000Y-70993000D01*
X98145599Y-72288401D02*
X100304599Y-72288401D01*
X97861001Y-72318999D02*
X98115001Y-72318999D01*
X163449000Y-99187000D02*
X177800000Y-113538000D01*
X178689000Y-131191000D02*
X181228996Y-131191000D01*
X97282000Y-72898000D02*
X97861001Y-72318999D01*
X100304599Y-72288401D02*
X101600000Y-70993000D01*
X147574000Y-70993000D02*
X163449000Y-86868000D01*
X214884000Y-66141600D02*
X220294200Y-71551800D01*
X220294200Y-71551800D02*
X238887000Y-71551800D01*
X214884000Y-66141600D02*
X179044600Y-66141600D01*
X238404400Y-66319400D02*
X239014000Y-66319400D01*
X237236000Y-65151000D02*
X238404400Y-66319400D01*
X200710800Y-139090400D02*
X200406001Y-138785601D01*
X200406001Y-138785601D02*
X200406001Y-132715001D01*
X200406001Y-132715001D02*
X197421500Y-129730500D01*
X209067400Y-133223000D02*
X209092801Y-133197599D01*
X209270600Y-133019800D02*
X209067400Y-133223000D01*
X203657202Y-139217400D02*
X208622900Y-139217400D01*
X202209401Y-137769599D02*
X203657202Y-139217400D01*
X200279000Y-131064000D02*
X200596500Y-131064000D01*
X200596500Y-131064000D02*
X202209401Y-132676901D01*
X208622900Y-139217400D02*
X209626200Y-139217400D01*
X202209401Y-132676901D02*
X202209401Y-137769599D01*
X198945500Y-129730500D02*
X200279000Y-131064000D01*
X202311000Y-130556000D02*
X211404199Y-139649199D01*
X211404199Y-139649199D02*
X218770201Y-139649199D01*
X218770201Y-139649199D02*
X219075000Y-139344400D01*
X200914000Y-130556000D02*
X202311000Y-130556000D01*
X254381000Y-104140000D02*
X253873000Y-104140000D01*
X250215401Y-107797599D02*
X250215401Y-115948967D01*
X253873000Y-104140000D02*
X250215401Y-107797599D01*
X250215401Y-121513599D02*
X250190000Y-121539000D01*
X250215401Y-115948967D02*
X250215401Y-121513599D01*
X260604200Y-89280800D02*
X259206800Y-89280800D01*
X259206800Y-89280800D02*
X258318000Y-88392000D01*
X258318000Y-88392000D02*
X247523000Y-88392000D01*
X245999000Y-88392000D02*
X244475000Y-89916000D01*
X247523000Y-88392000D02*
X245999000Y-88392000D01*
X201320401Y-130073401D02*
X202717401Y-130073401D01*
X202717401Y-130073401D02*
X210185000Y-137541000D01*
X210185000Y-137541000D02*
X215328500Y-137541000D01*
X227406948Y-139344400D02*
X227838000Y-139344400D01*
X220444565Y-138810999D02*
X220977966Y-139344400D01*
X220977966Y-139344400D02*
X227406948Y-139344400D01*
X216598499Y-138810999D02*
X220444565Y-138810999D01*
X215328500Y-137541000D02*
X216598499Y-138810999D01*
X200850500Y-129603500D02*
X201320401Y-130073401D01*
X244157500Y-126555500D02*
X244157500Y-126555500D01*
X177038000Y-129667000D02*
X177038000Y-129667000D01*
X176657000Y-129286000D02*
X177038000Y-129667000D01*
X176657000Y-114046000D02*
X176657000Y-129286000D01*
X162052000Y-99441000D02*
X176657000Y-114046000D01*
X162052000Y-88011000D02*
X162052000Y-99441000D01*
X104825802Y-73152000D02*
X147193000Y-73152000D01*
X147193000Y-73152000D02*
X162052000Y-88011000D01*
X243459000Y-127254000D02*
X185801000Y-127254000D01*
X244157500Y-126555500D02*
X243459000Y-127254000D01*
X182422052Y-129667000D02*
X181991000Y-129667000D01*
X185801000Y-127254000D02*
X183388000Y-129667000D01*
X183388000Y-129667000D02*
X182422052Y-129667000D01*
X104775000Y-73152000D02*
X103759000Y-72136000D01*
X104825802Y-73152000D02*
X104775000Y-73152000D01*
X40386000Y-89052400D02*
X39875966Y-89052400D01*
X34747200Y-71297800D02*
X33401000Y-69951600D01*
X34747200Y-83923634D02*
X34747200Y-71297800D01*
X39875966Y-89052400D02*
X34747200Y-83923634D01*
X39039800Y-71272400D02*
X37719000Y-69951600D01*
X39039800Y-83489800D02*
X39039800Y-71272400D01*
X45212000Y-86233000D02*
X41783000Y-86233000D01*
X41783000Y-86233000D02*
X39039800Y-83489800D01*
X45923200Y-112496600D02*
X45923200Y-112496600D01*
X47117000Y-111302800D02*
X78816200Y-111302800D01*
X161772601Y-107086401D02*
X162077400Y-107391200D01*
X45923200Y-112496600D02*
X47117000Y-111302800D01*
X78816200Y-111302800D02*
X85267800Y-104851200D01*
X85267800Y-104851200D02*
X159537400Y-104851200D01*
X159537400Y-104851200D02*
X161772601Y-107086401D01*
X158648400Y-101473000D02*
X167360600Y-110185200D01*
X82219800Y-104800400D02*
X85547200Y-101473000D01*
X85547200Y-101473000D02*
X158648400Y-101473000D01*
X45212000Y-105486200D02*
X45897800Y-104800400D01*
X45897800Y-104800400D02*
X82219800Y-104800400D01*
X32766000Y-114909600D02*
X32766000Y-122758200D01*
X32766000Y-122758200D02*
X34518600Y-124510800D01*
X34518600Y-127977900D02*
X32766000Y-129730500D01*
X34518600Y-124510800D02*
X34518600Y-127977900D01*
X164236399Y-108229399D02*
X164490400Y-108483400D01*
X102158801Y-108229399D02*
X164236399Y-108229399D01*
X100152200Y-110236000D02*
X102158801Y-108229399D01*
X45948600Y-114909600D02*
X48615600Y-112242600D01*
X32766000Y-114909600D02*
X45948600Y-114909600D01*
X48615600Y-112242600D02*
X79476600Y-112242600D01*
X79476600Y-112242600D02*
X81483200Y-110236000D01*
X81483200Y-110236000D02*
X100152200Y-110236000D01*
X252857000Y-75311000D02*
X252857000Y-69748400D01*
X236093000Y-113157000D02*
X241300000Y-107950000D01*
X244475000Y-87249000D02*
X244602000Y-87249000D01*
X251815599Y-80035401D02*
X251815599Y-76352401D01*
X244602000Y-87249000D02*
X251815599Y-80035401D01*
X241300000Y-90424000D02*
X244475000Y-87249000D01*
X252857000Y-69748400D02*
X253568200Y-69037200D01*
X241300000Y-107950000D02*
X241300000Y-90424000D01*
X186436000Y-122301000D02*
X195580000Y-113157000D01*
X251815599Y-76352401D02*
X252857000Y-75311000D01*
X195580000Y-113157000D02*
X236093000Y-113157000D01*
X185011640Y-122301000D02*
X186436000Y-122301000D01*
X184986240Y-122275600D02*
X185011640Y-122301000D01*
X179451000Y-124714000D02*
X179857389Y-124307611D01*
X206336889Y-124307611D02*
X207632290Y-123012210D01*
X207632290Y-123012210D02*
X247281710Y-123012210D01*
X254637900Y-130368400D02*
X255394100Y-130368400D01*
X247281710Y-123012210D02*
X254637900Y-130368400D01*
X179857389Y-124307611D02*
X206336889Y-124307611D01*
X251333001Y-65989949D02*
X251103652Y-65760600D01*
X251333000Y-79629000D02*
X251333001Y-65989949D01*
X244602000Y-86360000D02*
X251333000Y-79629000D01*
X243713000Y-86360000D02*
X244602000Y-86360000D01*
X240030000Y-107289600D02*
X240030000Y-90043000D01*
X240030000Y-90043000D02*
X243713000Y-86360000D01*
X235686600Y-111633000D02*
X240030000Y-107289600D01*
X194437000Y-111633000D02*
X235686600Y-111633000D01*
X251103652Y-65760600D02*
X250672600Y-65760600D01*
X183794400Y-122275600D02*
X194437000Y-111633000D01*
X183134000Y-122275600D02*
X183794400Y-122275600D01*
X252730000Y-127127000D02*
X252298948Y-127127000D01*
X252298948Y-127127000D02*
X248602500Y-123317000D01*
X248602500Y-123317000D02*
X248475500Y-123303552D01*
X245554500Y-120269000D02*
X248602500Y-123317000D01*
X179970953Y-123977401D02*
X193903599Y-123977401D01*
X179451000Y-123888500D02*
X179882052Y-123888500D01*
X179882052Y-123888500D02*
X179970953Y-123977401D01*
X193903599Y-123977401D02*
X197612000Y-120269000D01*
X197612000Y-120269000D02*
X245554500Y-120269000D01*
X252349000Y-80518000D02*
X252349000Y-77165200D01*
X242417600Y-90449400D02*
X252349000Y-80518000D01*
X242417600Y-109118400D02*
X242417600Y-90449400D01*
X188087000Y-123317000D02*
X196469000Y-114935000D01*
X236601000Y-114935000D02*
X242417600Y-109118400D01*
X196469000Y-114935000D02*
X236601000Y-114935000D01*
X179984400Y-123317000D02*
X188087000Y-123317000D01*
X243459000Y-125349000D02*
X243332000Y-125476000D01*
X243014500Y-124904500D02*
X243459000Y-125349000D01*
X242887500Y-124777500D02*
X243014500Y-124904500D01*
X183642000Y-124777500D02*
X242887500Y-124777500D01*
X183248299Y-125171201D02*
X183642000Y-124777500D01*
X179755799Y-125171201D02*
X183248299Y-125171201D01*
X179451000Y-125476000D02*
X179755799Y-125171201D01*
X166243000Y-88011000D02*
X168656000Y-90424000D01*
X168656000Y-90424000D02*
X169796970Y-90424000D01*
X169796970Y-90424000D02*
X180848000Y-101475030D01*
X180848000Y-101475030D02*
X180848000Y-101475030D01*
X169926000Y-88011000D02*
X180340000Y-98425000D01*
X180721000Y-98806000D02*
X180340000Y-98425000D01*
X180721000Y-100330000D02*
X180721000Y-98806000D01*
X166243000Y-92583000D02*
X175641000Y-101981000D01*
X175641000Y-101981000D02*
X177165000Y-101981000D01*
X177165000Y-101981000D02*
X177927000Y-101981000D01*
X177927000Y-101981000D02*
X177927000Y-101981000D01*
X177038000Y-101092000D02*
X177038000Y-101092000D01*
X169926000Y-94869000D02*
X169926000Y-92710000D01*
X176149000Y-101092000D02*
X169926000Y-94869000D01*
X169926000Y-92710000D02*
X169926000Y-92583000D01*
X177927000Y-101092000D02*
X176149000Y-101092000D01*
X175388017Y-132106417D02*
X131293617Y-132106417D01*
X131293617Y-132106417D02*
X121031000Y-121843800D01*
X121031000Y-121843800D02*
X121031000Y-118897400D01*
X121031000Y-118897400D02*
X121031000Y-118897400D01*
X175348900Y-129933700D02*
X135318500Y-129933700D01*
X135318500Y-129933700D02*
X127127000Y-121742200D01*
X127127000Y-121742200D02*
X127127000Y-118897400D01*
X127127000Y-118897400D02*
X127127000Y-118897400D01*
X133350000Y-118897400D02*
X133350000Y-118897400D01*
X143052800Y-128600200D02*
X175361600Y-128600200D01*
X133350000Y-118897400D02*
X133350000Y-121640600D01*
X140309600Y-128600200D02*
X143052800Y-128600200D01*
X133350000Y-121640600D02*
X140309600Y-128600200D01*
X139319000Y-118897400D02*
X139319000Y-118897400D01*
X144780000Y-124358400D02*
X173583600Y-124358400D01*
X139319000Y-118897400D02*
X139319000Y-121767600D01*
X141909800Y-124358400D02*
X144780000Y-124358400D01*
X139319000Y-121767600D02*
X141909800Y-124358400D01*
X173482000Y-123291600D02*
X146786600Y-123291600D01*
X146786600Y-123291600D02*
X145288000Y-121793000D01*
X145288000Y-121793000D02*
X145288000Y-118897400D01*
X145288000Y-118897400D02*
X145288000Y-118897400D01*
X238354348Y-71145400D02*
X238582948Y-70916800D01*
X239192548Y-70916800D02*
X239623600Y-70916800D01*
X238582948Y-70916800D02*
X239192548Y-70916800D01*
X238328200Y-71145400D02*
X238354348Y-71145400D01*
X221947234Y-71145400D02*
X238354348Y-71145400D01*
X216537033Y-65735199D02*
X221947234Y-71145400D01*
X216537033Y-65735199D02*
X202565000Y-65735199D01*
X202565000Y-65735199D02*
X180924199Y-65735199D01*
X180695599Y-65506599D02*
X176809401Y-65506599D01*
X180924199Y-65735199D02*
X180695599Y-65506599D01*
X210134210Y-131394210D02*
X210058000Y-131318000D01*
X251968000Y-108585000D02*
X251968000Y-121539000D01*
X251206000Y-107823000D02*
X251968000Y-108585000D01*
X92202748Y-81610200D02*
X92633800Y-81610200D01*
X82702399Y-77393799D02*
X86918800Y-81610200D01*
X86918800Y-81610200D02*
X92202748Y-81610200D01*
X51993799Y-77393799D02*
X82702399Y-77393799D01*
X51689000Y-77089000D02*
X51993799Y-77393799D01*
X36703000Y-100126800D02*
X36703000Y-100126800D01*
X38709600Y-98120200D02*
X36703000Y-100126800D01*
X92633800Y-85598000D02*
X80111600Y-98120200D01*
X80111600Y-98120200D02*
X38709600Y-98120200D01*
X237871000Y-69977000D02*
X228854000Y-69977000D01*
X228854000Y-69977000D02*
X228600000Y-70231000D01*
X238252000Y-70358000D02*
X237871000Y-69977000D01*
X238781790Y-69596000D02*
X229568820Y-69596000D01*
X229568820Y-69596000D02*
X229467210Y-69494390D01*
X239191800Y-69545200D02*
X238832590Y-69545200D01*
X229467210Y-69494390D02*
X229108000Y-69494390D01*
X238832590Y-69545200D02*
X238781790Y-69596000D01*
X237588552Y-69037200D02*
X237994390Y-69037200D01*
X237080541Y-68529189D02*
X237588552Y-69037200D01*
X237994390Y-69037200D02*
X238353600Y-69037200D01*
X229844611Y-68529189D02*
X237080541Y-68529189D01*
X229400474Y-68973326D02*
X229844611Y-68529189D01*
X228612326Y-68973326D02*
X229400474Y-68973326D01*
X237478881Y-68060881D02*
X229348466Y-68060881D01*
X229348466Y-68060881D02*
X229094467Y-68314880D01*
X237744000Y-68326000D02*
X237478881Y-68060881D01*
X228853999Y-67564001D02*
X228600000Y-67818000D01*
X237998001Y-67564001D02*
X228853999Y-67564001D01*
X238252000Y-67818000D02*
X237998001Y-67564001D01*
X237744000Y-67056000D02*
X228981000Y-67056000D01*
D20*
X96189800Y-99669600D02*
X96189800Y-97383600D01*
X67106799Y-101828601D02*
X65836800Y-103098600D01*
X67424301Y-101511099D02*
X67106799Y-101828601D01*
X75019647Y-101511099D02*
X67424301Y-101511099D01*
X76378548Y-102870000D02*
X75019647Y-101511099D01*
X76809600Y-102870000D02*
X76378548Y-102870000D01*
D19*
X80645000Y-108204000D02*
X70612000Y-108204000D01*
X70612000Y-108204000D02*
X70485000Y-108204000D01*
X70485000Y-108204000D02*
X70358000Y-108077000D01*
X70358000Y-108077000D02*
X66548000Y-108077000D01*
X66548000Y-108077000D02*
X64897000Y-106426000D01*
X64897000Y-106426000D02*
X63881000Y-106426000D01*
X155778200Y-122580400D02*
X150520400Y-122580400D01*
X146303999Y-118363999D02*
X117881401Y-118363999D01*
X150520400Y-122580400D02*
X146303999Y-118363999D01*
X117881401Y-118363999D02*
X115976400Y-120269000D01*
X115976400Y-120269000D02*
X113952526Y-120269000D01*
X113952526Y-120269000D02*
X113207800Y-120269000D01*
X113207800Y-120269000D02*
X110921800Y-117983000D01*
X110921800Y-117983000D02*
X110896400Y-117983000D01*
X110896400Y-117983000D02*
X110667800Y-117754400D01*
X110667800Y-117754400D02*
X100990400Y-117754400D01*
X100990400Y-117754400D02*
X100990400Y-117754400D01*
X156895800Y-121564400D02*
X151485600Y-121564400D01*
X151485600Y-121564400D02*
X147040600Y-117119400D01*
X147040600Y-117119400D02*
X117983000Y-117119400D01*
X117983000Y-117119400D02*
X115925600Y-115062000D01*
X115925600Y-115062000D02*
X101117400Y-115062000D01*
X101117400Y-115062000D02*
X100965000Y-114909600D01*
X100965000Y-114909600D02*
X100965000Y-114909600D01*
X118211600Y-115163600D02*
X152882600Y-115163600D01*
X100965000Y-113842800D02*
X116890800Y-113842800D01*
X152882600Y-115163600D02*
X157988000Y-120269000D01*
X116890800Y-113842800D02*
X118211600Y-115163600D01*
X166243000Y-113665000D02*
X165938201Y-113360201D01*
X165938201Y-113360201D02*
X165227000Y-112649000D01*
X165227000Y-112649000D02*
X164338000Y-111760000D01*
X164338000Y-111760000D02*
X101092000Y-111760000D01*
X101092000Y-111760000D02*
X100457000Y-111125000D01*
X100457000Y-111125000D02*
X96647000Y-111125000D01*
X165354000Y-113919000D02*
X163703000Y-112268000D01*
X163703000Y-112268000D02*
X160401000Y-112268000D01*
X103251000Y-112268000D02*
X103124000Y-112395000D01*
X160401000Y-112268000D02*
X103251000Y-112268000D01*
X164338000Y-113792000D02*
X163449000Y-112903000D01*
X163449000Y-112903000D02*
X107696000Y-112903000D01*
X91186000Y-128219200D02*
X91186000Y-144780000D01*
X105410000Y-124333000D02*
X95072200Y-124333000D01*
X95072200Y-124333000D02*
X91186000Y-128219200D01*
X102057948Y-125603000D02*
X101626148Y-125171200D01*
X102489000Y-125603000D02*
X102057948Y-125603000D01*
X101626148Y-125171200D02*
X97917000Y-125171200D01*
X94742000Y-128346200D02*
X94742000Y-144780000D01*
X97917000Y-125171200D02*
X94742000Y-128346200D01*
X98298000Y-125984000D02*
X98298000Y-144780000D01*
X75615052Y-85344000D02*
X75184000Y-85344000D01*
X75640453Y-85369401D02*
X75615052Y-85344000D01*
X86284547Y-85369401D02*
X75640453Y-85369401D01*
X86741000Y-84912948D02*
X86284547Y-85369401D01*
X86741000Y-84074000D02*
X86741000Y-84912948D01*
X82143600Y-100558600D02*
X82143600Y-100558600D01*
X93395800Y-89306400D02*
X93421200Y-89306400D01*
X93395800Y-89306400D02*
X95021400Y-87680800D01*
X95021400Y-87680800D02*
X95021400Y-87680800D01*
X81102200Y-101651548D02*
X81102200Y-102082600D01*
X81102200Y-101600000D02*
X81102200Y-101651548D01*
X93395800Y-89306400D02*
X81102200Y-101600000D01*
X79781400Y-100533200D02*
X79781400Y-100533200D01*
X92633800Y-87680800D02*
X79248000Y-101066600D01*
X79248000Y-101066600D02*
X79248000Y-102082600D01*
X92659200Y-87680800D02*
X92633800Y-87680800D01*
X94488000Y-85852000D02*
X92659200Y-87680800D01*
D21*
G36*
X56007000Y-95927868D02*
G01*
X56007000Y-97663000D01*
X53531791Y-97663000D01*
X49886821Y-92635455D01*
X49870302Y-92616828D01*
X49850467Y-92601782D01*
X49828077Y-92590894D01*
X49803994Y-92584584D01*
X49784000Y-92583000D01*
X31673800Y-92583000D01*
X31673800Y-90703243D01*
X52007160Y-90678078D01*
X56007000Y-95927868D01*
G37*
X56007000Y-95927868D02*
X56007000Y-97663000D01*
X53531791Y-97663000D01*
X49886821Y-92635455D01*
X49870302Y-92616828D01*
X49850467Y-92601782D01*
X49828077Y-92590894D01*
X49803994Y-92584584D01*
X49784000Y-92583000D01*
X31673800Y-92583000D01*
X31673800Y-90703243D01*
X52007160Y-90678078D01*
X56007000Y-95927868D01*
G36*
X57658000Y-107026170D02*
G01*
X55528132Y-110617226D01*
X31344435Y-110692800D01*
X31355473Y-109004026D01*
X52832075Y-108991400D01*
X52856850Y-108988945D01*
X52880670Y-108981704D01*
X52902619Y-108969955D01*
X52921855Y-108954150D01*
X52940367Y-108930624D01*
X55247082Y-105156000D01*
X57658000Y-105156000D01*
X57658000Y-107026170D01*
G37*
X57658000Y-107026170D02*
X55528132Y-110617226D01*
X31344435Y-110692800D01*
X31355473Y-109004026D01*
X52832075Y-108991400D01*
X52856850Y-108988945D01*
X52880670Y-108981704D01*
X52902619Y-108969955D01*
X52921855Y-108954150D01*
X52940367Y-108930624D01*
X55247082Y-105156000D01*
X57658000Y-105156000D01*
X57658000Y-107026170D01*
M02*
