M48
; DRILL file {KiCad (5.1.5-0-10_14)} date Monday, August 17, 2020 at 01:50:14 PM
; FORMAT={-:-/ absolute / inch / decimal}
; #@! TF.CreationDate,2020-08-17T13:50:14-04:00
; #@! TF.GenerationSoftware,Kicad,Pcbnew,(5.1.5-0-10_14)
; #@! TF.FileFunction,Plated,1,8,PTH
FMAT,2
INCH
T1C0.0100
T2C0.0120
T3C0.0315
T4C0.0394
T5C0.0500
T6C0.0540
T7C0.1400
%
G90
G05
T1
X1.08Y-4.15
X1.135Y-3.77
X1.185Y-4.04
X1.245Y-4.315
X1.245Y-4.345
X1.28Y-4.315
X1.28Y-4.345
X1.645Y-3.68
X1.645Y-3.71
X1.705Y-4.04
X1.71Y-3.785
X1.715Y-5.605
X1.723Y-4.557
X1.77Y-3.68
X1.77Y-3.71
X1.78Y-2.225
X2.115Y-5.6
X3.49Y-2.22
X3.725Y-2.87
X4.363Y-5.025
X6.075Y-3.4155
X6.075Y-4.025
X6.2645Y-3.5655
X6.265Y-3.715
X6.265Y-4.325
X6.905Y-4.035
X7.13Y-4.2
X7.22Y-4.09
X7.31Y-4.14
X7.59Y-3.765
X9.0Y-2.67
X9.0Y-2.765
X9.0005Y-2.7155
X9.015Y-2.64
X9.0195Y-2.6896
X9.02Y-2.736
X9.36Y-2.64
X9.36Y-2.69
X9.38Y-2.67
X9.38Y-2.77
X9.384Y-2.718
X9.39Y-5.615
X9.417Y-2.738
X9.59Y-3.12
X10.105Y-5.615
X10.238Y-4.55
T2
X1.059Y-3.38
X1.077Y-3.581
X1.107Y-4.379
X1.118Y-3.607
X1.1225Y-3.42
X1.185Y-4.57
X1.19Y-3.255
X1.245Y-4.18
X1.245Y-4.225
X1.255Y-3.89
X1.26Y-3.585
X1.26Y-3.635
X1.26Y-3.945
X1.28Y-3.39
X1.287Y-3.742
X1.29Y-4.524
X1.295Y-3.09
X1.305Y-3.585
X1.305Y-3.635
X1.305Y-3.83
X1.345Y-4.43
X1.39Y-4.47
X1.3925Y-4.1925
X1.395Y-3.375
X1.395Y-3.44
X1.395Y-3.515
X1.395Y-3.675
X1.4Y-3.015
X1.4026Y-3.0524
X1.445Y-3.942
X1.45Y-2.83
X1.45Y-2.93
X1.46Y-3.865
X1.465Y-4.145
X1.465Y-4.395
X1.465Y-4.47
X1.47Y-3.375
X1.47Y-3.445
X1.47Y-3.515
X1.47Y-3.675
X1.47Y-4.265
X1.485Y-3.015
X1.51Y-2.83
X1.51Y-2.88
X1.51Y-2.93
X1.54Y-3.515
X1.54Y-4.145
X1.54Y-4.22
X1.54Y-4.395
X1.54Y-4.47
X1.545Y-3.375
X1.545Y-3.445
X1.545Y-3.675
X1.545Y-4.265
X1.582Y-4.229
X1.583Y-4.379
X1.59Y-3.506
X1.615Y-4.424
X1.634Y-3.506
X1.64Y-4.465
X1.64Y-4.495
X1.71Y-3.26
X1.765Y-4.465
X1.765Y-4.495
X1.78Y-3.395
X1.78Y-4.153
X1.808Y-4.429
X1.83Y-3.77
X1.83Y-3.83
X1.88Y-3.77
X1.883Y-3.413
X1.93Y-3.77
X1.93Y-3.83
X2.035Y-3.035
X2.095Y-4.475
X2.095Y-4.525
X2.095Y-4.675
X2.095Y-4.73
X2.11Y-3.075
X2.11Y-3.115
X2.11Y-3.295
X2.11Y-3.33
X2.11Y-4.6
X2.125Y-3.2
X2.1334Y-2.9916
X2.135Y-2.94
X2.14Y-4.475
X2.14Y-4.525
X2.14Y-4.675
X2.14Y-4.73
X2.15Y-3.075
X2.15Y-3.115
X2.15Y-3.295
X2.15Y-3.33
X2.183Y-2.806
X2.28Y-2.53
X2.28Y-2.57
X2.28Y-2.61
X2.285Y-3.361
X2.292Y-3.014
X2.295Y-4.445
X2.3Y-5.21
X2.3Y-5.25
X2.3Y-5.29
X2.32Y-2.53
X2.34Y-5.29
X2.36Y-2.53
X2.38Y-5.29
X2.4Y-2.53
X2.42Y-5.29
X2.435Y-3.361
X2.44Y-2.53
X2.44Y-2.57
X2.44Y-2.61
X2.44Y-4.44
X2.46Y-5.21
X2.46Y-5.25
X2.46Y-5.29
X2.57Y-3.08
X2.57Y-3.115
X2.57Y-3.29
X2.57Y-3.33
X2.575Y-4.48
X2.575Y-4.515
X2.575Y-4.69
X2.575Y-4.725
X2.59Y-3.15
X2.59Y-3.2
X2.59Y-3.25
X2.5926Y-4.8524
X2.593Y-4.904
X2.595Y-4.79
X2.6Y-4.55
X2.6Y-4.6
X2.6Y-4.655
X2.62Y-3.08
X2.62Y-3.115
X2.62Y-4.69
X2.62Y-4.725
X2.625Y-3.29
X2.625Y-3.33
X2.625Y-4.48
X2.625Y-4.515
X2.65Y-3.15
X2.65Y-3.2
X2.65Y-3.25
X2.65Y-4.55
X2.65Y-4.6
X2.65Y-4.655
X2.655Y-2.975
X2.67Y-3.08
X2.67Y-3.115
X2.6724Y-2.9274
X2.675Y-3.29
X2.675Y-3.335
X2.675Y-4.48
X2.675Y-4.515
X2.675Y-4.69
X2.675Y-4.725
X2.675Y-4.77
X2.6955Y-2.8225
X2.8Y-2.53
X2.8Y-2.57
X2.8Y-2.6
X2.81Y-3.005
X2.81Y-3.36
X2.81Y-4.445
X2.82Y-5.22
X2.82Y-5.26
X2.82Y-5.3
X2.84Y-2.53
X2.86Y-5.3
X2.88Y-2.53
X2.9Y-5.3
X2.92Y-2.53
X2.94Y-5.3
X2.96Y-2.53
X2.96Y-2.57
X2.96Y-2.6
X2.96Y-3.36
X2.96Y-4.445
X2.96Y-4.765
X2.98Y-5.22
X2.98Y-5.26
X2.98Y-5.3
X3.024Y-4.05
X3.03Y-3.796
X3.065Y-4.86
X3.09Y-3.295
X3.09Y-3.34
X3.095Y-3.075
X3.095Y-3.12
X3.095Y-4.475
X3.095Y-4.525
X3.095Y-4.675
X3.095Y-4.725
X3.115Y-4.6
X3.12Y-2.849
X3.12Y-3.205
X3.12Y-4.019
X3.122Y-3.628
X3.125Y-3.505
X3.125Y-3.555
X3.13Y-3.075
X3.13Y-3.12
X3.13Y-3.295
X3.13Y-3.34
X3.134Y-3.796
X3.135Y-4.78
X3.139Y-4.913
X3.14Y-4.475
X3.14Y-4.525
X3.14Y-4.675
X3.14Y-4.725
X3.145Y-2.935
X3.175Y-4.26
X3.193Y-4.019
X3.205Y-3.02
X3.21Y-4.5
X3.22Y-4.41
X3.323Y-3.48
X3.325Y-3.06
X3.33Y-4.29
X3.33Y-4.37
X3.345Y-3.185
X3.35Y-3.445
X3.355Y-3.385
X3.415Y-3.31
X3.526Y-3.1
X3.527Y-3.02
X3.53Y-2.9
X3.532Y-2.935
X3.545Y-3.265
X3.555Y-3.185
X3.576Y-4.81
X3.635Y-4.807
X3.647Y-3.213
X3.647Y-3.37
X3.675Y-4.758
X3.695Y-3.245
X3.715Y-3.265
X3.72Y-3.38
X3.728Y-2.772
X3.741Y-3.452
X3.76Y-2.685
X3.78Y-2.99
X3.78Y-3.035
X3.787Y-3.834
X3.787Y-3.924
X3.79Y-2.77
X3.79Y-2.87
X3.805Y-4.375
X3.809Y-3.453
X3.81Y-3.506
X3.81Y-3.559
X3.815Y-3.61
X3.84Y-2.61
X3.843Y-3.035
X3.845Y-2.99
X3.865Y-2.785
X3.865Y-2.825
X3.8668Y-2.8682
X3.87Y-4.96
X3.888Y-4.78
X3.888Y-4.86
X3.915Y-2.99
X3.915Y-3.035
X3.915Y-4.25
X3.915Y-4.41
X3.915Y-4.56
X3.941Y-3.2395
X3.96Y-3.48
X3.961Y-3.534
X3.963Y-3.417
X3.97Y-4.021
X3.975Y-4.482
X3.975Y-4.524
X3.976Y-4.636
X3.987Y-2.764
X3.99Y-3.67
X3.99Y-3.7
X3.991Y-3.241
X3.9951Y-2.399
X4.031Y-2.399
X4.035Y-4.945
X4.045Y-3.62
X4.045Y-3.65
X4.05Y-2.76
X4.06Y-4.425
X4.085Y-2.84
X4.115Y-3.21
X4.125Y-2.465
X4.125Y-2.52
X4.125Y-2.57
X4.15Y-4.895
X4.153Y-2.854
X4.18Y-2.465
X4.18Y-2.52
X4.18Y-2.57
X4.235Y-2.57
X4.235Y-3.255
X4.235Y-3.285
X4.24Y-2.52
X4.24Y-4.445
X4.251Y-2.608
X4.275Y-3.561
X4.275Y-3.713
X4.282Y-2.83
X4.32Y-3.44
X4.35Y-3.658
X4.36Y-3.45
X4.38Y-3.78
X4.435Y-2.71
X4.44Y-2.35
X4.45Y-3.3
X4.45Y-3.345
X4.45Y-3.395
X4.45Y-3.45
X4.5Y-3.3
X4.5Y-3.345
X4.5Y-3.395
X4.5Y-3.45
X4.52Y-2.658
X4.525Y-2.55
X4.55Y-3.3
X4.55Y-3.345
X4.55Y-3.395
X4.55Y-3.45
X4.552Y-2.658
X4.565Y-2.22
X4.565Y-2.55
X4.58Y-2.585
X4.584Y-2.658
X4.6Y-3.3
X4.6Y-3.345
X4.6Y-3.395
X4.6Y-3.45
X4.605Y-2.55
X4.615Y-2.585
X4.615Y-2.658
X4.65Y-3.13
X4.65Y-3.185
X4.65Y-3.24
X4.65Y-3.295
X4.65Y-3.345
X4.65Y-3.395
X4.65Y-3.45
X4.6725Y-4.4975
X4.68Y-2.22
X4.7Y-3.13
X4.7Y-3.185
X4.7Y-3.24
X4.7Y-3.295
X4.7Y-3.345
X4.7Y-3.395
X4.72Y-4.5
X4.75Y-3.13
X4.75Y-3.185
X4.75Y-3.24
X4.75Y-3.295
X4.75Y-3.345
X4.75Y-3.395
X4.76Y-4.5
X4.76Y-4.868
X4.765Y-4.681
X4.8Y-2.22
X4.8Y-3.13
X4.8Y-3.185
X4.8Y-3.24
X4.8Y-3.295
X4.8Y-3.345
X4.8Y-3.395
X4.8075Y-4.4975
X4.85Y-3.13
X4.85Y-3.185
X4.85Y-3.24
X4.85Y-3.295
X4.85Y-3.345
X4.9Y-3.13
X4.9Y-3.185
X4.9Y-3.24
X4.9Y-3.295
X4.9Y-3.345
X4.915Y-4.495
X4.92Y-2.22
X4.955Y-4.5
X4.99Y-2.37
X5.005Y-4.5
X5.005Y-4.681
X5.007Y-4.868
X5.02Y-2.37
X5.045Y-4.495
X5.08Y-2.28
X5.0982Y-2.4878
X5.115Y-2.395
X5.141Y-2.651
X5.155Y-4.495
X5.2Y-4.5
X5.23Y-3.32
X5.23Y-3.38
X5.25Y-4.5
X5.25Y-4.681
X5.259Y-4.868
X5.265Y-3.32
X5.265Y-3.38
X5.2875Y-4.4975
X5.3Y-3.32
X5.3Y-3.38
X5.352Y-2.463
X5.37Y-2.538
X5.372Y-2.506
X5.387Y-2.463
X5.39Y-4.495
X5.395Y-2.27
X5.422Y-2.463
X5.435Y-4.5
X5.462Y-2.463
X5.482Y-4.868
X5.485Y-4.5
X5.485Y-4.681
X5.52Y-4.495
X5.63Y-4.495
X5.67Y-4.5
X5.72Y-4.5
X5.72Y-4.681
X5.72Y-4.868
X5.7625Y-4.4975
X5.823Y-4.924
X5.865Y-3.945
X6.02Y-3.885
X6.089Y-2.86
X6.095Y-3.91
X6.11Y-2.47
X6.115Y-2.6
X6.122Y-2.729
X6.133Y-4.826
X6.16Y-4.508
X6.177Y-4.786
X6.181Y-4.477
X6.22Y-4.735
X6.222Y-2.65
X6.24Y-4.495
X6.268Y-5.433
X6.3Y-2.545
X6.311Y-3.44
X6.331Y-4.03
X6.346Y-2.576
X6.35Y-4.135
X6.355Y-3.885
X6.365Y-4.165
X6.38Y-3.955
X6.381Y-4.228
X6.47Y-4.48
X6.476Y-4.271
X6.485Y-4.375
X6.51Y-4.485
X6.545Y-4.475
X6.573Y-4.924
X6.579Y-4.245
X6.589Y-4.338
X6.628Y-3.824
X6.65Y-4.309
X6.665Y-4.245
X6.667Y-3.537
X6.675Y-4.175
X6.693Y-4.052
X6.695Y-4.755
X6.714Y-3.969
X6.72Y-4.025
X6.72Y-4.805
X6.73Y-4.085
X6.7371Y-3.9408
X6.743Y-3.998
X6.761Y-3.913
X6.77Y-4.665
X6.775Y-2.4
X6.795Y-4.805
X6.815Y-4.635
X6.82Y-4.82
X6.83Y-4.854
X6.834Y-4.896
X6.84Y-4.27
X6.849Y-4.352
X6.871Y-4.891
X6.88Y-4.31
X6.887Y-4.511
X6.894Y-5.394
X6.895Y-5.69
X6.9035Y-5.1155
X6.904Y-5.063
X6.905Y-5.201
X6.907Y-4.34
X6.915Y-2.4
X6.93Y-4.525
X6.93Y-4.595
X6.93Y-4.675
X6.936Y-4.292
X6.96Y-2.58
X6.964Y-4.255
X6.97Y-5.105
X6.993Y-4.212
X7.005Y-3.98
X7.005Y-4.015
X7.02Y-5.69
X7.04Y-3.725
X7.045Y-2.6
X7.06Y-2.395
X7.065Y-4.8775
X7.065Y-4.91
X7.065Y-4.94
X7.0825Y-5.0675
X7.085Y-4.651
X7.086Y-4.855
X7.104Y-4.68
X7.115Y-3.95
X7.12Y-3.9951
X7.12Y-4.605
X7.124Y-4.702
X7.135Y-5.165
X7.145Y-5.395
X7.145Y-5.69
X7.155Y-4.535
X7.165Y-5.105
X7.175Y-2.115
X7.178Y-4.447
X7.207Y-5.065
X7.21Y-4.814
X7.2116Y-4.7057
X7.22Y-4.305
X7.2246Y-4.593
X7.225Y-2.56
X7.24Y-4.7
X7.255Y-4.9675
X7.27Y-4.595
X7.27Y-5.69
X7.275Y-4.445
X7.275Y-4.474
X7.275Y-4.565
X7.28Y-4.39
X7.2825Y-3.5725
X7.2829Y-4.814
X7.283Y-3.637
X7.315Y-2.67
X7.3746Y-4.5854
X7.375Y-3.68
X7.3751Y-4.6144
X7.38Y-4.41
X7.4Y-5.69
X7.425Y-4.9875
X7.4926Y-2.6674
X7.51Y-4.86
X7.5146Y-4.3954
X7.515Y-4.48
X7.53Y-5.69
X7.531Y-4.226
X7.5313Y-4.2603
X7.54Y-4.86
X7.557Y-2.113
X7.565Y-3.7
X7.568Y-4.28
X7.575Y-4.86
X7.5793Y-2.6707
X7.59Y-4.354
X7.605Y-4.86
X7.619Y-4.331
X7.642Y-4.304
X7.66Y-2.43
X7.66Y-2.47
X7.66Y-5.69
X7.665Y-3.49
X7.675Y-2.94
X7.69Y-2.43
X7.69Y-2.47
X7.728Y-4.133
X7.7725Y-5.1075
X7.777Y-4.166
X7.817Y-4.226
X7.8325Y-5.1075
X7.88Y-2.675
X7.881Y-4.202
X7.885Y-5.031
X7.902Y-5.476
X7.9075Y-5.1025
X7.91Y-5.14
X7.92Y-5.45
X7.9207Y-2.1443
X7.925Y-5.059
X7.94Y-5.28
X7.94Y-5.31
X7.94Y-5.34
X7.94Y-5.37
X7.96Y-2.485
X7.9625Y-4.8575
X7.965Y-2.405
X7.97Y-2.565
X7.99Y-2.485
X7.99Y-5.28
X8.0Y-2.565
X8.02Y-5.31
X8.02Y-5.34
X8.02Y-5.37
X8.03Y-5.275
X8.084Y-2.861
X8.09Y-4.8575
X8.13Y-2.525
X8.134Y-2.659
X8.14Y-4.81
X8.145Y-5.455
X8.18Y-5.41
X8.2Y-4.865
X8.215Y-5.031
X8.231Y-5.245
X8.245Y-2.86
X8.253Y-5.481
X8.265Y-4.875
X8.265Y-5.054
X8.27Y-5.17
X8.28Y-2.525
X8.28Y-5.285
X8.28Y-5.315
X8.28Y-5.345
X8.28Y-5.38
X8.285Y-2.657
X8.325Y-5.285
X8.325Y-5.445
X8.37Y-5.315
X8.37Y-5.345
X8.37Y-5.375
X8.375Y-5.28
X8.383Y-2.867
X8.4125Y-4.865
X8.42Y-2.525
X8.424Y-2.657
X8.465Y-4.809
X8.49Y-5.47
X8.52Y-4.885
X8.52Y-5.42
X8.523Y-2.852
X8.56Y-5.031
X8.564Y-2.658
X8.565Y-2.525
X8.615Y-5.195
X8.62Y-5.031
X8.625Y-5.486
X8.63Y-4.87
X8.63Y-5.3
X8.63Y-5.335
X8.63Y-5.37
X8.6368Y-5.101
X8.645Y-2.61
X8.65Y-5.275
X8.663Y-2.867
X8.695Y-5.275
X8.695Y-5.45
X8.705Y-2.565
X8.725Y-5.3
X8.725Y-5.335
X8.725Y-5.37
X8.73Y-5.265
X8.78Y-4.822
X8.803Y-2.86
X8.8296Y-4.809
X8.846Y-2.655
X8.86Y-5.455
X8.885Y-4.8675
X8.89Y-5.41
X8.925Y-5.054
X8.95Y-5.31
X8.95Y-5.34
X8.96Y-5.19
X8.97Y-5.486
X8.975Y-4.8775
X8.975Y-5.054
X8.98Y-5.31
X8.98Y-5.34
X8.98Y-5.37
X8.9821Y-5.101
X9.03Y-2.6
X9.034Y-2.904
X9.035Y-2.475
X9.035Y-2.86
X9.045Y-5.45
X9.075Y-5.31
X9.075Y-5.34
X9.075Y-5.37
X9.09Y-2.99
X9.115Y-5.305
X9.12Y-2.325
X9.1325Y-4.822
X9.133Y-2.544
X9.173Y-4.807
X9.205Y-5.45
X9.215Y-2.42
X9.215Y-2.455
X9.215Y-2.485
X9.225Y-2.52
X9.225Y-4.865
X9.24Y-5.405
X9.255Y-2.5425
X9.255Y-2.955
X9.26Y-5.031
X9.269Y-2.311
X9.295Y-2.515
X9.31Y-2.42
X9.31Y-2.455
X9.31Y-2.485
X9.3196Y-2.719
X9.32Y-5.101
X9.329Y-2.779
X9.33Y-5.16
X9.33Y-5.261
X9.33Y-5.301
X9.34Y-2.565
X9.34Y-5.21
X9.35Y-2.375
X9.36Y-5.235
X9.37Y-5.18
X9.405Y-2.817
X9.41Y-2.611
X9.434Y-2.792
X9.55Y-3.28
X9.57Y-3.585
X9.57Y-3.92
X9.57Y-4.27
X9.585Y-4.935
X9.61Y-3.185
X9.61Y-3.685
X9.6125Y-4.9825
X9.615Y-3.27
X9.615Y-3.375
X9.615Y-3.965
X9.625Y-3.54
X9.625Y-4.31
X9.658Y-3.622
X9.665Y-4.3
X9.685Y-3.965
X9.71Y-3.05
X9.73Y-4.55
X9.74Y-3.8643
X9.743Y-4.219
X9.747Y-3.526
X9.775Y-2.67
X9.775Y-2.735
X9.775Y-2.85
X9.78Y-3.195
X9.78Y-4.55
X9.795Y-2.96
X9.8Y-3.92
X9.8Y-4.26
X9.82Y-3.53
X9.82Y-3.875
X9.82Y-4.22
X9.83Y-4.575
X9.84Y-3.57
X9.8475Y-5.235
X9.85Y-4.785
X9.85Y-5.1625
X9.86Y-2.74
X9.86Y-2.85
X9.865Y-2.67
X9.865Y-2.81
X9.865Y-3.525
X9.865Y-3.875
X9.869Y-2.589
X9.874Y-2.62
X9.89Y-4.245
X9.89Y-4.575
X9.92Y-4.785
X9.9325Y-5.16
X9.935Y-3.038
X9.935Y-5.235
X9.9375Y-5.0825
X9.95Y-5.005
X9.9502Y-5.3373
X9.97Y-3.55
X9.983Y-2.718
X9.9841Y-2.6659
X9.9843Y-2.6243
X9.985Y-2.774
X10.003Y-2.743
X10.015Y-4.1
X10.03Y-3.44
X10.03Y-3.515
X10.03Y-3.79
X10.03Y-3.855
X10.03Y-4.469
X10.035Y-4.13
X10.035Y-4.195
X10.035Y-4.53
X10.04Y-3.73
X10.04Y-4.41
X10.048Y-4.079
X10.05Y-3.4
X10.05Y-5.03
X10.0517Y-5.1878
X10.0549Y-5.1326
X10.0549Y-5.0874
X10.0557Y-5.0584
X10.065Y-3.435
X10.065Y-3.52
X10.065Y-3.785
X10.065Y-3.865
X10.07Y-4.465
X10.07Y-4.545
X10.075Y-4.125
X10.075Y-4.21
X10.075Y-5.16
X10.089Y-2.898
X10.095Y-3.525
X10.095Y-3.775
X10.095Y-3.87
X10.096Y-3.431
X10.1Y-4.545
X10.1001Y-4.4651
X10.105Y-4.12
X10.105Y-4.21
X10.125Y-3.43
X10.125Y-3.525
X10.13Y-3.78
X10.13Y-3.87
X10.13Y-4.465
X10.13Y-4.545
X10.1317Y-5.1783
X10.135Y-4.125
X10.135Y-4.21
X10.14Y-2.815
X10.1575Y-5.305
X10.16Y-5.235
X10.186Y-3.87
X10.195Y-3.61
X10.195Y-4.3
X10.205Y-3.94
X10.205Y-4.55
X10.21Y-3.645
X10.215Y-3.26
X10.22Y-4.325
X10.2205Y-2.6445
X10.225Y-3.29
X10.225Y-3.98
X10.225Y-4.13
X10.23Y-3.445
X10.248Y-3.867
X10.258Y-3.909
X10.258Y-4.208
X10.26Y-3.515
T3
X1.09Y-4.4737
X1.09Y-4.5525
X2.98Y-2.6622
X2.98Y-2.8
X2.815Y-4.99
X2.815Y-5.1278
X2.27Y-4.985
X2.27Y-5.1228
X1.08Y-3.71
X1.08Y-3.7887
X2.46Y-2.67
X2.46Y-2.8078
T4
X4.155Y-2.165
X4.255Y-2.165
X6.285Y-2.215
X6.285Y-2.315
X6.285Y-2.415
X6.385Y-2.215
X6.385Y-2.315
X6.385Y-2.415
T5
X3.365Y-2.755
X5.11Y-5.7
X10.5055Y-5.2585
X3.365Y-2.495
X10.525Y-3.054
X4.94Y-5.7
X1.665Y-2.594
X1.665Y-2.754
X3.245Y-5.699
X10.5105Y-5.1485
X3.87Y-5.7
X6.545Y-3.645
X3.225Y-2.5
X3.59Y-5.7
X10.525Y-3.164
X7.45Y-3.0755
X6.585Y-5.7855
X1.315Y-2.594
X1.63Y-4.9375
X1.29Y-5.1075
X3.225Y-2.76
X7.81Y-2.81
X3.875Y-2.209
X3.73Y-5.7
X6.545Y-3.465
X6.69Y-3.645
X7.6Y-3.0755
X6.705Y-5.7855
X6.345Y-5.7855
X1.315Y-2.754
X1.29Y-4.9375
X1.63Y-5.1075
X3.385Y-5.699
X3.51Y-2.76
X10.523Y-2.601
X7.215Y-3.465
X10.523Y-2.816
X10.525Y-2.949
X5.275Y-5.7
X1.485Y-2.594
X3.875Y-2.324
X3.105Y-5.699
X3.51Y-2.5
X10.523Y-2.706
X10.5105Y-5.0385
X3.875Y-2.434
X6.69Y-3.465
X7.29Y-3.075
X6.465Y-5.7855
X6.225Y-5.7855
X1.485Y-2.754
X1.46Y-4.9475
X1.46Y-5.1075
T6
X4.787Y-3.93
X4.862Y-3.8
X4.862Y-4.06
X4.937Y-3.67
X4.937Y-3.93
X4.937Y-4.19
X5.012Y-3.54
X5.012Y-3.8
X5.012Y-4.06
X5.012Y-4.32
X5.087Y-3.67
X5.087Y-3.93
X5.087Y-4.19
X5.162Y-3.54
X5.162Y-3.8
X5.162Y-4.06
X5.162Y-4.32
X5.237Y-3.67
X5.237Y-3.93
X5.237Y-4.19
X5.312Y-3.54
X5.312Y-3.8
X5.312Y-4.06
X5.312Y-4.32
X5.387Y-3.67
X5.387Y-3.93
X5.387Y-4.19
X5.462Y-3.54
X5.462Y-3.8
X5.462Y-4.06
X5.462Y-4.32
X5.537Y-3.67
X5.537Y-3.93
X5.537Y-4.19
X5.612Y-3.8
X5.612Y-4.06
X5.687Y-3.93
X8.188Y-3.929
X8.263Y-3.799
X8.263Y-4.059
X8.338Y-3.669
X8.338Y-3.929
X8.338Y-4.189
X8.413Y-3.539
X8.413Y-3.799
X8.413Y-4.059
X8.413Y-4.319
X8.488Y-3.669
X8.488Y-3.929
X8.488Y-4.189
X8.563Y-3.539
X8.563Y-3.799
X8.563Y-4.059
X8.563Y-4.319
X8.638Y-3.669
X8.638Y-3.929
X8.638Y-4.189
X8.713Y-3.539
X8.713Y-3.799
X8.713Y-4.059
X8.713Y-4.319
X8.788Y-3.669
X8.788Y-3.929
X8.788Y-4.189
X8.863Y-3.539
X8.863Y-3.799
X8.863Y-4.059
X8.863Y-4.319
X8.938Y-3.669
X8.938Y-3.929
X8.938Y-4.189
X9.013Y-3.799
X9.013Y-4.059
X9.088Y-3.929
X2.067Y-3.929
X2.142Y-3.799
X2.142Y-4.059
X2.217Y-3.669
X2.217Y-3.929
X2.217Y-4.189
X2.292Y-3.539
X2.292Y-3.799
X2.292Y-4.059
X2.292Y-4.319
X2.367Y-3.669
X2.367Y-3.929
X2.367Y-4.189
X2.442Y-3.539
X2.442Y-3.799
X2.442Y-4.059
X2.442Y-4.319
X2.517Y-3.669
X2.517Y-3.929
X2.517Y-4.189
X2.592Y-3.539
X2.592Y-3.799
X2.592Y-4.059
X2.592Y-4.319
X2.667Y-3.669
X2.667Y-3.929
X2.667Y-4.189
X2.742Y-3.539
X2.742Y-3.799
X2.742Y-4.059
X2.742Y-4.319
X2.817Y-3.669
X2.817Y-3.929
X2.817Y-4.189
X2.892Y-3.799
X2.892Y-4.059
X2.967Y-3.929
T7
X5.75Y-5.57
X10.3Y-2.37
X1.2Y-5.57
X10.3Y-5.57
X5.75Y-2.37
X1.2Y-2.37
T0
M30
